<svg xmlns="http://www.w3.org/2000/svg" width="512" height="512" viewBox="0 0 512 512">
<g>
<path d="M 187.38 510.53 C184.05,511.72 206.60,511.92 347.75,511.96 L 512.00 512.00 L 0.00 512.00 L 0.00 0.00 L 512.00 0.00 L 346.75 0.10 C256.87,0.16 184.47,0.53 184.47,0.92 C184.47,0.93 184.48,0.93 184.50,0.94 C192.04,2.77 198.66,8.62 201.14,15.66 C202.27,18.85 202.50,59.50 202.50,256.00 C202.50,479.27 202.40,492.75 200.74,497.06 C198.59,502.63 192.60,508.67 187.38,510.53 ZM 0.10 392.75 L 0.00 512.00 L 87.25 511.96 C162.71,511.92 173.98,511.73 170.62,510.53 C165.92,508.85 160.58,503.90 157.66,498.50 L 155.50 494.50 L 155.50 256.00 C155.50,25.21 155.56,17.39 157.36,14.00 C161.16,6.88 166.90,2.37 174.00,0.94 C175.93,0.55 137.56,0.18 88.75,0.11 L 0.00 0.00 L 0.14 236.50 L 2.13 232.00 C6.23,222.73 13.76,217.64 23.50,217.55 C31.57,217.48 34.32,218.39 39.10,222.71 C46.66,229.54 47.40,232.08 47.82,252.64 C48.05,263.90 47.75,272.88 47.04,276.32 C45.47,283.87 41.15,289.56 34.69,292.56 C20.44,299.20 4.63,291.67 0.94,276.50 C0.53,274.85 0.16,327.16 0.10,392.75 ZM 420.28 423.65 C415.66,425.59 406.27,425.31 401.50,423.10 C399.30,422.08 396.06,419.73 394.30,417.87 C393.45,416.97 392.71,416.38 392.07,415.69 C387.97,411.28 387.97,403.07 388.00,286.33 C388.00,276.94 388.00,266.85 388.00,256.00 C388.00,246.23 388.00,237.08 388.00,228.51 C387.98,108.62 387.98,100.77 391.89,96.54 C392.45,95.95 393.08,95.42 393.80,94.66 C398.56,89.65 403.73,87.56 411.50,87.53 C417.40,87.50 419.25,87.94 423.27,90.31 C428.50,93.38 432.23,98.32 433.97,104.50 C434.79,107.41 435.02,149.39 434.80,258.50 L 434.50 408.50 L 432.29 412.62 C429.80,417.29 425.04,421.66 420.28,423.65 ZM 265.78 423.45 C260.71,425.57 251.46,425.40 246.50,423.10 C244.30,422.08 241.06,419.73 239.30,417.87 C238.45,416.97 237.71,416.38 237.07,415.69 C232.97,411.28 232.97,403.07 233.00,286.33 C233.00,276.94 233.00,266.85 233.00,256.00 C233.00,131.52 233.24,104.37 234.35,101.72 C236.35,96.94 240.72,92.19 245.38,89.74 C251.21,86.66 261.85,86.69 267.76,89.81 C272.64,92.38 277.54,98.58 279.02,104.06 C279.68,106.53 279.94,159.26 279.76,258.15 L 279.50 408.50 L 277.34 412.50 C274.59,417.60 270.50,421.48 265.78,423.45 ZM 111.00 379.92 C99.67,385.05 85.64,379.88 80.40,368.62 L 78.02 363.50 L 78.01 256.22 C78.01,249.68 78.01,243.53 78.01,237.73 C77.98,153.17 77.98,145.22 81.90,140.62 C82.58,139.83 83.37,139.13 84.30,138.16 C89.27,132.98 93.98,131.00 101.34,131.00 C108.98,131.00 113.72,132.79 118.35,137.42 C119.35,138.42 120.21,139.14 120.93,139.97 C125.09,144.72 125.07,153.13 124.83,239.26 C124.81,244.99 124.79,251.06 124.78,257.50 L 124.50 365.50 L 122.35 369.50 C119.58,374.64 116.60,377.38 111.00,379.92 ZM 340.39 337.58 C334.71,339.29 332.84,339.28 327.00,337.46 C321.27,335.68 315.56,330.96 312.72,325.65 L 310.50 321.50 L 310.50 190.34 L 313.53 185.45 C315.40,182.41 318.41,179.40 321.45,177.53 C325.78,174.85 327.22,174.50 334.00,174.50 C340.77,174.50 342.22,174.85 346.53,177.52 C350.09,179.71 352.17,181.99 354.21,185.88 L 357.00 191.23 L 356.99 255.86 L 356.98 320.50 L 354.60 325.62 C351.84,331.55 347.05,335.58 340.39,337.58 ZM 512.00 512.00 L 511.91 394.25 C511.86,324.27 511.46,277.73 510.94,279.54 C509.65,283.96 503.24,290.99 498.56,293.11 C493.09,295.60 484.72,295.51 479.00,292.92 C473.40,290.38 470.42,287.64 467.65,282.50 C465.63,278.74 465.50,277.13 465.50,255.92 L 465.50 233.35 L 468.53 228.45 C470.39,225.44 473.41,222.40 476.38,220.57 C480.56,217.99 482.19,217.58 488.36,217.56 C499.18,217.54 505.64,221.57 509.92,231.00 L 511.96 235.50 L 511.98 117.75 L 512.00 0.00 L 512.00 512.00 Z" fill="rgb(0,0,0)"/>
<path d="M 157.17 14.40 C155.56,18.25 155.50,33.58 155.50,256.00 L 155.50 17.50 ZM 0.80 277.89 C0.85,276.80 0.89,276.32 0.94,276.50 C1.29,277.95 1.75,279.32 2.31,280.62 ZM 169.07 2.52 C169.38,2.37 169.69,2.22 170.00,2.08 L 172.85 0.79 C173.84,0.84 174.24,0.89 174.00,0.94 C172.27,1.28 170.63,1.81 169.07,2.52 ZM 45.81 280.51 C45.08,282.57 44.12,284.30 42.88,286.00 C41.59,287.79 39.94,289.34 38.05,290.63 C41.55,288.17 44.19,284.73 45.81,280.51 ZM 24.12 294.99 C20.74,295.05 17.41,294.43 14.50,293.03 C13.99,292.79 13.51,292.55 13.06,292.31 C16.42,294.07 20.20,295.01 24.12,294.99 ZM 6.64 287.36 C8.42,289.31 10.48,290.92 12.75,292.15 C10.19,290.76 8.32,289.34 6.64,287.36 ZM 47.74 268.60 C47.91,264.33 47.94,258.83 47.82,252.64 C47.95,259.27 47.95,264.44 47.74,268.60 ZM 158.66 11.79 C159.46,10.52 160.33,9.36 161.30,8.30 C160.35,9.36 159.47,10.52 158.66,11.79 Z" fill="rgb(59,59,59)"/>
<path d="M 0.02 394.25 L 0.04 276.50 L 2.95 281.78 C6.28,287.82 8.83,290.31 14.50,293.03 C23.65,297.43 37.00,294.12 42.88,286.00 C47.29,279.92 48.24,273.47 47.82,252.64 C47.40,232.08 46.66,229.54 39.10,222.71 C34.32,218.39 31.57,217.48 23.50,217.55 C13.76,217.64 6.23,222.73 2.13,232.00 L 0.14 236.50 L 0.07 118.25 L 0.00 0.00 L 87.25 0.02 L 174.50 0.04 L 170.00 2.08 C164.45,4.59 160.48,8.26 157.66,13.50 L 155.50 17.50 L 155.50 256.00 L 155.50 494.50 L 157.66 498.50 C160.58,503.90 165.92,508.85 170.62,510.53 C173.98,511.73 162.71,511.92 87.25,511.96 L 0.00 512.00 L 0.02 394.25 ZM 111.00 379.92 C116.60,377.38 119.58,374.64 122.35,369.50 L 124.50 365.50 L 124.78 257.50 C125.09,137.35 125.47,144.54 118.35,137.42 C113.72,132.79 108.98,131.00 101.34,131.00 C93.98,131.00 89.27,132.98 84.30,138.16 C77.61,145.14 78.00,137.84 78.01,256.22 L 78.02 363.50 L 80.40 368.62 C85.64,379.88 99.67,385.05 111.00,379.92 ZM 187.38 510.53 C192.60,508.67 198.59,502.63 200.74,497.06 C202.40,492.75 202.50,479.27 202.50,256.00 C202.50,59.50 202.27,18.85 201.14,15.66 C198.66,8.62 192.04,2.77 184.50,0.94 C182.85,0.53 255.86,0.16 346.75,0.10 L 512.00 0.00 L 511.98 117.75 L 511.96 235.50 L 509.92 231.00 C505.64,221.57 499.18,217.54 488.36,217.56 C482.19,217.58 480.56,217.99 476.38,220.57 C473.41,222.40 470.39,225.44 468.53,228.45 L 465.50 233.35 L 465.50 255.92 C465.50,277.13 465.63,278.74 467.65,282.50 C470.42,287.64 473.40,290.38 479.00,292.92 C484.72,295.51 493.09,295.60 498.56,293.11 C503.24,290.99 509.65,283.96 510.94,279.54 C511.46,277.73 511.86,324.27 511.91,394.25 L 512.00 512.00 L 347.75 511.96 C206.60,511.92 184.05,511.72 187.38,510.53 ZM 265.78 423.45 C270.50,421.48 274.59,417.60 277.34,412.50 L 279.50 408.50 L 279.76 258.15 C279.94,159.26 279.68,106.53 279.02,104.06 C277.54,98.58 272.64,92.38 267.76,89.81 C261.85,86.69 251.21,86.66 245.38,89.74 C240.72,92.19 236.35,96.94 234.35,101.72 C233.24,104.37 233.00,131.52 233.00,256.00 C233.00,422.78 232.53,410.74 239.30,417.87 C241.06,419.73 244.30,422.08 246.50,423.10 C251.46,425.40 260.71,425.57 265.78,423.45 ZM 420.28 423.65 C425.04,421.66 429.80,417.29 432.29,412.62 L 434.50 408.50 L 434.80 258.50 C435.02,149.39 434.79,107.41 433.97,104.50 C432.23,98.32 428.50,93.38 423.27,90.31 C419.25,87.94 417.40,87.50 411.50,87.53 C403.73,87.56 398.56,89.65 393.80,94.66 C387.61,101.18 388.00,90.44 388.00,256.00 C388.00,422.78 387.53,410.74 394.30,417.87 C396.06,419.73 399.30,422.08 401.50,423.10 C406.27,425.31 415.66,425.59 420.28,423.65 ZM 340.39 337.58 C347.05,335.58 351.84,331.55 354.60,325.62 L 356.98 320.50 L 356.99 255.86 L 357.00 191.23 L 354.21 185.88 C352.17,181.99 350.09,179.71 346.53,177.52 C342.22,174.85 340.77,174.50 334.00,174.50 C327.22,174.50 325.78,174.85 321.45,177.53 C318.41,179.40 315.40,182.41 313.53,185.45 L 310.50 190.34 L 310.50 255.92 L 310.50 321.50 L 312.72 325.65 C315.56,330.96 321.27,335.68 327.00,337.46 C332.84,339.28 334.71,339.29 340.39,337.58 Z" fill="rgb(171,171,171)"/>
<path d="M 0.02 394.25 L 0.04 276.50 L 2.95 281.78 C6.28,287.82 8.83,290.31 14.50,293.03 C23.65,297.43 37.00,294.12 42.88,286.00 C47.29,279.92 48.24,273.47 47.82,252.64 C47.40,232.08 46.66,229.54 39.10,222.71 C34.32,218.39 31.57,217.48 23.50,217.55 C13.76,217.64 6.23,222.73 2.13,232.00 L 0.14 236.50 L 0.07 118.25 L 0.00 0.00 L 87.25 0.02 L 174.50 0.04 L 170.00 2.08 C164.45,4.59 160.48,8.26 157.66,13.50 L 155.50 17.50 L 155.50 256.00 L 155.50 494.50 L 157.66 498.50 C160.58,503.90 165.92,508.85 170.62,510.53 C173.98,511.73 162.71,511.92 87.25,511.96 L 0.00 512.00 L 0.02 394.25 ZM 111.00 379.92 C116.60,377.38 119.58,374.64 122.35,369.50 L 124.50 365.50 L 124.78 257.50 C125.09,137.35 125.47,144.54 118.35,137.42 C113.72,132.79 108.98,131.00 101.34,131.00 C93.98,131.00 89.27,132.98 84.30,138.16 C77.61,145.14 78.00,137.84 78.01,256.22 L 78.02 363.50 L 80.40 368.62 C85.64,379.88 99.67,385.05 111.00,379.92 ZM 187.38 510.53 C192.60,508.67 198.59,502.63 200.74,497.06 C202.40,492.75 202.50,479.27 202.50,256.00 C202.50,59.50 202.27,18.85 201.14,15.66 C199.22,10.21 194.33,5.06 188.51,2.35 L 183.50 0.02 L 347.75 0.01 L 512.00 0.00 L 511.98 117.75 L 511.96 235.50 L 509.92 231.00 C505.64,221.57 499.18,217.54 488.36,217.56 C482.19,217.58 480.56,217.99 476.38,220.57 C473.41,222.40 470.39,225.44 468.53,228.45 L 465.50 233.35 L 465.50 255.92 C465.50,277.13 465.63,278.74 467.65,282.50 C470.42,287.64 473.40,290.38 479.00,292.92 C484.72,295.51 493.09,295.60 498.56,293.11 C503.24,290.99 509.65,283.96 510.94,279.54 C511.46,277.73 511.86,324.27 511.91,394.25 L 512.00 512.00 L 347.75 511.96 C206.60,511.92 184.05,511.72 187.38,510.53 ZM 265.78 423.45 C270.50,421.48 274.59,417.60 277.34,412.50 L 279.50 408.50 L 279.76 258.15 C279.94,159.26 279.68,106.53 279.02,104.06 C277.54,98.58 272.64,92.38 267.76,89.81 C261.85,86.69 251.21,86.66 245.38,89.74 C240.72,92.19 236.35,96.94 234.35,101.72 C233.24,104.37 233.00,131.52 233.00,256.00 C233.00,422.78 232.53,410.74 239.30,417.87 C241.06,419.73 244.30,422.08 246.50,423.10 C251.46,425.40 260.71,425.57 265.78,423.45 ZM 420.28 423.65 C425.04,421.66 429.80,417.29 432.29,412.62 L 434.50 408.50 L 434.80 258.50 C435.02,149.39 434.79,107.41 433.97,104.50 C432.23,98.32 428.50,93.38 423.27,90.31 C419.25,87.94 417.40,87.50 411.50,87.53 C403.73,87.56 398.56,89.65 393.80,94.66 C387.61,101.18 388.00,90.44 388.00,256.00 C388.00,422.78 387.53,410.74 394.30,417.87 C396.06,419.73 399.30,422.08 401.50,423.10 C406.27,425.31 415.66,425.59 420.28,423.65 ZM 340.39 337.58 C347.05,335.58 351.84,331.55 354.60,325.62 L 356.98 320.50 L 356.99 255.86 L 357.00 191.23 L 354.21 185.88 C352.17,181.99 350.09,179.71 346.53,177.52 C342.22,174.85 340.77,174.50 334.00,174.50 C327.22,174.50 325.78,174.85 321.45,177.53 C318.41,179.40 315.40,182.41 313.53,185.45 L 310.50 190.34 L 310.50 255.92 L 310.50 321.50 L 312.72 325.65 C315.56,330.96 321.27,335.68 327.00,337.46 C332.84,339.28 334.71,339.29 340.39,337.58 Z" fill="rgb(254,254,254)"/>
</g>
</svg>